<svg xmlns="http://www.w3.org/2000/svg" viewBox="0 0 456 457" width="456" height="457"><defs><linearGradient id="8348878094323164310" x1="234.00000000000003" y1="278.5" x2="479.1305774480205" y2="278.5" gradientTransform="matrix(0.004079458,0,0,0.002531646,-0.954593272,-0.205063291)"><stop stop-color="#ffffff" /><stop offset="1" stop-color="#ffd683" /></linearGradient></defs><g transform="matrix(1,0,0,1,-27.9999,-19)">
<g>
	<g>
		<path d="M234.00000000000003,81 L479.1305774480205,81 L479.1305774480205,476 L234.00000000000003,476 L234.00000000000003,81 Z" fill="url('#8348878094323164310')"/>
	</g>
	<g>
		<path d="M222,476 C222,476 222,81 222,81" transform="matrix(1,0,0,1,12,0)" fill="none" stroke="#000000" stroke-width="10"/>
	</g>
	<g>
		<path d="M222,476 C222,476 467.1305774480205,476 467.1305774480205,476" transform="matrix(1.044341357,0,0,1,-3.84378135,0)" fill="none" stroke="#000000" stroke-width="10"/>
	</g>
	<g>
		<path d="M222,81 C222,81 467.1305774480205,81 467.1305774480205,81" transform="matrix(1,0,0,1,12,0)" fill="none" stroke="#000000" stroke-width="5"/>
	</g>
	<g>
		<path d="M467.1305774480205,476 C467.1305774480205,476 467.13057744667,80.99999999999999 467.13057744667,80.99999999999999" transform="matrix(1,0,0,1,12,0)" fill="none" stroke="#000000" stroke-width="10"/>
	</g>
	<g>
		<path d="M362.02367758186347,372.8729479965097 C362.02367758186347,372.8729479965097 372.5425692695209,294.34649963378916 372.5425692695209,294.34649963378916 C372.5425692695209,294.34649963378916 381.6735516372791,294.34649963378916 381.6735516372791,294.34649963378916 C381.6735516372791,294.34649963378916 402.2730478589416,333.28100844991013 402.2730478589416,333.28100844991013 C402.2730478589416,333.28100844991013 422.7264483627199,294.34649963378916 422.7264483627199,294.34649963378916 C422.7264483627199,294.34649963378916 431.93047858942015,294.34649963378916 431.93047858942015,294.34649963378916 C431.93047858942015,294.34649963378916 442.37632241813554,372.8729479965097 442.37632241813554,372.8729479965097 C442.37632241813554,372.8729479965097 431.1269521410575,372.8729479965097 431.1269521410575,372.8729479965097 C431.1269521410575,372.8729479965097 423.1647355163723,308.80997570431816 423.1647355163723,308.80997570431816 C423.1647355163723,308.80997570431816 425.9405541561708,309.2482628579706 425.9405541561708,309.2482628579706 C425.9405541561708,309.2482628579706 402.4191435768257,354.245743966283 402.4191435768257,354.245743966283 C402.4191435768257,354.245743966283 378.3863979848862,309.2482628579706 378.3863979848862,309.2482628579706 C378.3863979848862,309.2482628579706 381.1622166246847,308.80997570431816 381.1622166246847,308.80997570431816 C381.1622166246847,308.80997570431816 373.19999999999953,372.8729479965097 373.19999999999953,372.8729479965097 C373.19999999999953,372.8729479965097 362.02367758186347,372.8729479965097 362.02367758186347,372.8729479965097 Z" fill="#000000"/>
	</g>
	<g>
		<path d="M428.00000000000006,429.6 C428.00000000000006,429.6 255.2,429.6 255.2,429.6" transform="matrix(1,0,0,1,12,-9)" fill="none" stroke="#000000" stroke-width="4"/>
	</g>
	<g>
		<path d="M255.2,363.2 C255.2,363.2 317.64613679003696,363.2 317.64613679003696,363.2" transform="matrix(1,0,0,1,12,-25)" fill="none" stroke="#000000" stroke-width="4"/>
	</g>
	<g>
		<path d="M255.2,268.8 C255.2,268.8 428.00000000000006,268.8 428.00000000000006,268.8" transform="matrix(1,0,0,1,12,-9)" fill="none" stroke="#000000" stroke-width="4"/>
	</g>
	<g>
		<path d="M349.32977235053954,216.8729479965097 C349.32977235053954,216.8729479965097 338.8108806628821,138.34649963378922 338.8108806628821,138.34649963378922 C338.8108806628821,138.34649963378922 329.6798982951239,138.34649963378922 329.6798982951239,138.34649963378922 C329.6798982951239,138.34649963378922 309.0804020734614,177.2810084499102 309.0804020734614,177.2810084499102 C309.0804020734614,177.2810084499102 288.6270015696831,138.34649963378922 288.6270015696831,138.34649963378922 C288.6270015696831,138.34649963378922 279.42297134298286,138.34649963378922 279.42297134298286,138.34649963378922 C279.42297134298286,138.34649963378922 268.97712751426747,216.87294799650974 268.97712751426747,216.87294799650974 C268.97712751426747,216.87294799650974 280.22649779134554,216.87294799650974 280.22649779134554,216.87294799650974 C280.22649779134554,216.87294799650974 288.18871441603073,152.8099757043182 288.18871441603073,152.8099757043182 C288.18871441603073,152.8099757043182 285.41289577623223,153.2482628579706 285.41289577623223,153.2482628579706 C285.41289577623223,153.2482628579706 308.9343063555773,198.245743966283 308.9343063555773,198.245743966283 C308.9343063555773,198.245743966283 332.96705194751684,153.2482628579706 332.96705194751684,153.2482628579706 C332.96705194751684,153.2482628579706 330.19123330771833,152.8099757043182 330.19123330771833,152.8099757043182 C330.19123330771833,152.8099757043182 338.1534499324035,216.8729479965097 338.1534499324035,216.8729479965097 C338.1534499324035,216.8729479965097 349.32977235053954,216.8729479965097 349.32977235053954,216.8729479965097 Z" fill="#000000"/>
	</g>
	<g>
		<path d="M255.2,363.2 C255.2,363.2 317.64613679003696,363.2 317.64613679003696,363.2" transform="matrix(-1,0,0,1,699.353449932,-181)" fill="none" stroke="#000000" stroke-width="4"/>
	</g>
	<g>
		<path d="" fill="#fefefe" stroke="#000000" stroke-width="2"/>
	</g>
	<g>
		<path d="" fill="#fefefe" stroke="#000000" stroke-width="2"/>
	</g>
	<g>
		<path d="M487,476 C487,476 465.26825517911465,431.2164094334755 256,432.41518005540166 C256,432.41518005540166 256,37.41518005540166 256,37.41518005540166 C256,37.41518005540166 467,26.999999999999986 488,98 C487.99999999999994,97.99999999999996 487,476 487,476 Z" transform="matrix(0.88793125,0,0,1.040716081,-199.3105,-19.380854673)" fill="#fefefe" stroke="#000000" stroke-width="5"/>
	</g>
</g></g></svg>